<mxfile host="app.diagrams.net" agent="Mozilla/5.0 (Macintosh; Intel Mac OS X 10_15_7) AppleWebKit/537.36 (KHTML, like Gecko) Chrome/137.0.0.0 Safari/537.36" version="27.1.6">
  <diagram name="Page-1" id="tJuN0KmjbO2KpsGcAA3b">
    <mxGraphModel dx="1002" dy="615" grid="1" gridSize="10" guides="1" tooltips="1" connect="1" arrows="1" fold="1" page="1" pageScale="1" pageWidth="827" pageHeight="1169" math="0" shadow="0">
      <root>
        <mxCell id="0" />
        <mxCell id="1" parent="0" />
        <mxCell id="F0EBMUcN88BxdDliTEwX-22" value="In-Memory Job Queue Library (Your JAR)" style="whiteSpace=wrap;strokeWidth=2;" vertex="1" parent="1">
          <mxGeometry x="70" y="343" width="665" height="536" as="geometry" />
        </mxCell>
        <mxCell id="F0EBMUcN88BxdDliTEwX-23" value="Library Contracts" style="whiteSpace=wrap;strokeWidth=2;" vertex="1" parent="1">
          <mxGeometry x="486" y="726" width="204" height="128" as="geometry" />
        </mxCell>
        <mxCell id="F0EBMUcN88BxdDliTEwX-24" value="Core Components" style="whiteSpace=wrap;strokeWidth=2;" vertex="1" parent="1">
          <mxGeometry x="90" y="368" width="351" height="486" as="geometry" />
        </mxCell>
        <mxCell id="F0EBMUcN88BxdDliTEwX-25" value="Public API" style="whiteSpace=wrap;strokeWidth=2;" vertex="1" parent="1">
          <mxGeometry x="461" y="368" width="254" height="128" as="geometry" />
        </mxCell>
        <mxCell id="F0EBMUcN88BxdDliTEwX-26" value="Host Application" style="whiteSpace=wrap;strokeWidth=2;" vertex="1" parent="1">
          <mxGeometry x="755" y="210" width="330" height="443" as="geometry" />
        </mxCell>
        <mxCell id="F0EBMUcN88BxdDliTEwX-27" value="Application Logic" style="whiteSpace=wrap;strokeWidth=2;" vertex="1" parent="1">
          <mxGeometry x="828" y="235" width="183" height="54" as="geometry" />
        </mxCell>
        <mxCell id="F0EBMUcN88BxdDliTEwX-28" value="User-Defined Jobs (implements Job interface)" style="whiteSpace=wrap;strokeWidth=2;" vertex="1" parent="1">
          <mxGeometry x="790" y="550" width="260" height="78" as="geometry" />
        </mxCell>
        <mxCell id="F0EBMUcN88BxdDliTEwX-29" value="Job Queue API &#xa; e.g., submitJob()" style="whiteSpace=wrap;strokeWidth=2;" vertex="1" parent="1">
          <mxGeometry x="496" y="393" width="184" height="78" as="geometry" />
        </mxCell>
        <mxCell id="F0EBMUcN88BxdDliTEwX-30" value="Queue Manager" style="whiteSpace=wrap;strokeWidth=2;" vertex="1" parent="1">
          <mxGeometry x="224" y="562" width="170" height="54" as="geometry" />
        </mxCell>
        <mxCell id="F0EBMUcN88BxdDliTEwX-31" value="In-Memory Job Queue &#xa; (e.g., BlockingQueue)" style="whiteSpace=wrap;strokeWidth=2;" vertex="1" parent="1">
          <mxGeometry x="140" y="751" width="216" height="78" as="geometry" />
        </mxCell>
        <mxCell id="F0EBMUcN88BxdDliTEwX-32" value="Job Executor &#xa; (Manages Thread Pool)" style="whiteSpace=wrap;strokeWidth=2;" vertex="1" parent="1">
          <mxGeometry x="125" y="393" width="222" height="78" as="geometry" />
        </mxCell>
        <mxCell id="F0EBMUcN88BxdDliTEwX-33" value="Job Interface &#xa; void execute()" style="rounded=1;arcSize=20;strokeWidth=2" vertex="1" parent="1">
          <mxGeometry x="521" y="751" width="134" height="78" as="geometry" />
        </mxCell>
        <mxCell id="F0EBMUcN88BxdDliTEwX-34" value="1. Submits Job" style="curved=1;startArrow=none;endArrow=block;exitX=0.5;exitY=1;entryX=1;entryY=0.27;rounded=0;" edge="1" parent="1" source="F0EBMUcN88BxdDliTEwX-27" target="F0EBMUcN88BxdDliTEwX-29">
          <mxGeometry relative="1" as="geometry">
            <Array as="points">
              <mxPoint x="920" y="368" />
            </Array>
          </mxGeometry>
        </mxCell>
        <mxCell id="F0EBMUcN88BxdDliTEwX-35" value="Implements" style="curved=1;startArrow=none;endArrow=block;exitX=0.5;exitY=1;entryX=0.5;entryY=-0.01;rounded=0;" edge="1" parent="1" source="F0EBMUcN88BxdDliTEwX-28" target="F0EBMUcN88BxdDliTEwX-33">
          <mxGeometry relative="1" as="geometry">
            <Array as="points">
              <mxPoint x="920" y="653" />
              <mxPoint x="588" y="689" />
            </Array>
          </mxGeometry>
        </mxCell>
        <mxCell id="F0EBMUcN88BxdDliTEwX-36" value="2. Forwards Job to" style="curved=1;startArrow=none;endArrow=block;exitX=0.5;exitY=1;entryX=0.5;entryY=0;rounded=0;" edge="1" parent="1" source="F0EBMUcN88BxdDliTEwX-29" target="F0EBMUcN88BxdDliTEwX-30">
          <mxGeometry relative="1" as="geometry">
            <Array as="points">
              <mxPoint x="588" y="496" />
              <mxPoint x="309" y="523" />
            </Array>
          </mxGeometry>
        </mxCell>
        <mxCell id="F0EBMUcN88BxdDliTEwX-37" value="3. Adds Job to" style="curved=1;startArrow=none;endArrow=block;exitX=0.5;exitY=1;entryX=0.67;entryY=-0.01;rounded=0;" edge="1" parent="1" source="F0EBMUcN88BxdDliTEwX-30" target="F0EBMUcN88BxdDliTEwX-31">
          <mxGeometry relative="1" as="geometry">
            <Array as="points">
              <mxPoint x="309" y="726" />
            </Array>
          </mxGeometry>
        </mxCell>
        <mxCell id="F0EBMUcN88BxdDliTEwX-38" value="4. Takes Next Job from" style="curved=1;startArrow=none;endArrow=block;exitX=0.33;exitY=1;entryX=0.29;entryY=-0.01;rounded=0;" edge="1" parent="1" source="F0EBMUcN88BxdDliTEwX-32" target="F0EBMUcN88BxdDliTEwX-31">
          <mxGeometry relative="1" as="geometry">
            <Array as="points">
              <mxPoint x="174" y="496" />
              <mxPoint x="174" y="726" />
            </Array>
          </mxGeometry>
        </mxCell>
        <mxCell id="F0EBMUcN88BxdDliTEwX-39" value="5. Executes" style="curved=1;startArrow=none;endArrow=block;exitX=0.63;exitY=1;entryX=0;entryY=0.33;rounded=0;" edge="1" parent="1" source="F0EBMUcN88BxdDliTEwX-32" target="F0EBMUcN88BxdDliTEwX-28">
          <mxGeometry relative="1" as="geometry">
            <Array as="points">
              <mxPoint x="285" y="496" />
              <mxPoint x="285" y="523" />
            </Array>
          </mxGeometry>
        </mxCell>
      </root>
    </mxGraphModel>
  </diagram>
</mxfile>
